<?xml version="1.0" encoding="UTF-8" standalone="no"?>
<svg width="54px" height="66px" viewBox="0 0 54 66" version="1.1" xmlns="http://www.w3.org/2000/svg" xmlns:xlink="http://www.w3.org/1999/xlink">
    <!-- Generator: Sketch 39 (31667) - http://www.bohemiancoding.com/sketch -->
    <title>Group 6</title>
    <desc>Created with Sketch.</desc>
    <defs></defs>
    <g id="Page-1" stroke="none" stroke-width="1" fill="none" fill-rule="evenodd">
        <g id="Prelaunch_Home" transform="translate(-868.000000, -6955.000000)" fill="#000000">
            <g id="Group-6" transform="translate(839.000000, 6955.000000)">
                <text id="email" font-family="PontiacInlineShadow, Pontiac Inline" font-size="16" font-weight="500">
                    <tspan x="33.6689412" y="66">email</tspan>
                </text>
                <g id="noun_22709_cc" transform="translate(29.000000, 0.000000)">
                    <g id="Layer_1">
                        <g id="Group">
                            <path d="M52.704,34.7142857 L1.296,34.7142857 C0.72,34.7142857 0.216,34.2142857 0.216,33.6428571 L0.216,1.42857143 C0.216,0.857142857 0.72,0.357142857 1.296,0.357142857 L52.632,0.357142857 C53.208,0.357142857 53.712,0.857142857 53.712,1.42857143 L53.712,33.5714286 C53.784,34.2142857 53.28,34.7142857 52.704,34.7142857 L52.704,34.7142857 Z M2.376,32.5714286 L51.552,32.5714286 L51.552,2.57142857 L2.376,2.57142857 L2.376,32.5714286 L2.376,32.5714286 Z" id="Shape"></path>
                            <path d="M27,21.5 C26.784,21.5 26.568,21.4285714 26.352,21.2857143 L0.648,2.28571429 C0.144,1.92857143 0.072,1.28571429 0.432,0.785714286 C0.792,0.285714286 1.44,0.214285714 1.944,0.571428571 L27,19.0714286 L52.056,0.571428571 C52.56,0.214285714 53.208,0.285714286 53.568,0.785714286 C53.928,1.28571429 53.856,1.92857143 53.352,2.28571429 L27.648,21.2857143 C27.432,21.4285714 27.216,21.5 27,21.5 L27,21.5 Z" id="Shape"></path>
                            <path d="M1.296,34.7142857 C1.008,34.7142857 0.648,34.5714286 0.432,34.3571429 C0.072,33.9285714 0.144,33.2142857 0.576,32.8571429 L21.24,16 C21.672,15.6428571 22.392,15.7142857 22.752,16.1428571 C23.112,16.5714286 23.04,17.2857143 22.608,17.6428571 L2.016,34.4285714 C1.8,34.5714286 1.584,34.7142857 1.296,34.7142857 L1.296,34.7142857 Z" id="Shape"></path>
                            <path d="M52.704,34.7142857 C52.488,34.7142857 52.2,34.6428571 51.984,34.5 L31.32,17.5714286 C30.888,17.2142857 30.816,16.5 31.176,16.0714286 C31.536,15.6428571 32.256,15.5714286 32.688,15.9285714 L53.352,32.7857143 C53.784,33.1428571 53.856,33.8571429 53.496,34.2857143 C53.28,34.5714286 52.992,34.7142857 52.704,34.7142857 L52.704,34.7142857 Z" id="Shape"></path>
                        </g>
                    </g>
                </g>
            </g>
        </g>
    </g>
</svg>