<?xml version="1.0" encoding="UTF-8" standalone="no"?>
<svg width="176px" height="196px" viewBox="0 0 176 196" version="1.1" xmlns="http://www.w3.org/2000/svg" xmlns:xlink="http://www.w3.org/1999/xlink">
    <!-- Generator: Sketch 39 (31667) - http://www.bohemiancoding.com/sketch -->
    <title>Page 1</title>
    <desc>Created with Sketch.</desc>
    <defs>
        <polygon id="path-1" points="38.8839332 0.166060606 0.0418847828 0.166060606 0.0418847828 9.7529697 38.8839332 9.7529697 38.8839332 0.166060606"></polygon>
        <polygon id="path-3" points="42.5916954 60.2356364 42.5916954 0.0146677529 0.472143008 0.0146677529 0.472143008 60.2356364 42.5916954 60.2356364"></polygon>
    </defs>
    <g id="Page-1" stroke="none" stroke-width="1" fill="none" fill-rule="evenodd">
        <g id="Prelaunch_Home" transform="translate(-699.000000, -5012.000000)">
            <g id="Page-1" transform="translate(699.000000, 5012.000000)">
                <g id="Group-3" transform="translate(67.828218, 0.319006)">
                    <mask id="mask-2" fill="white">
                        <use xlink:href="#path-1"></use>
                    </mask>
                    <g id="Clip-2"></g>
                    <path d="M36.5445309,9.7529697 C36.1069295,9.7529697 35.6649521,9.63078788 35.2732989,9.37551515 C28.777106,5.15587879 21.5216747,3.85551515 13.7104896,5.5049697 C7.75692251,6.76387879 3.68722944,9.35151515 3.64565731,9.37769697 C2.56259383,10.073697 1.11850919,9.76606061 0.418346943,8.68824242 C-0.281815305,7.61042424 0.0223176717,6.17260606 1.10100514,5.47006061 C1.28917374,5.34787879 5.80959626,2.44606061 12.5595979,0.984242424 C21.5654348,-0.96630303 30.3021469,0.584969697 37.8223271,5.47006061 C38.9032025,6.17260606 39.2095235,7.61478788 38.5049852,8.69260606 C38.0564438,9.37987879 37.3081454,9.7529697 36.5445309,9.7529697" id="Fill-1" fill="#000000" mask="url(#mask-2)"></path>
                </g>
                <path d="M76.1496461,74.6756121 C75.7011047,74.6756121 75.2481872,74.5468848 74.8477819,74.2785212 C68.6776021,70.1352485 63.4285733,64.2596121 59.6673892,57.2865212 C55.9324612,50.3614303 53.9129307,42.8232485 53.8254104,35.4901576 C53.68319,23.3090667 58.9059628,12.8581576 68.5331937,6.06397576 C69.585625,5.32215758 71.0428377,5.56870303 71.7889481,6.62033939 C72.5350585,7.67197576 72.2856257,9.12288485 71.2310063,9.86688485 C62.8946996,15.7490667 58.372089,24.8297939 58.4968054,35.4356121 C58.6521539,48.8472485 66.2729824,62.904703 77.4558863,70.4145212 C78.5258218,71.1323394 78.8080747,72.5810667 78.0882203,73.6479758 C77.6374909,74.3156121 76.9001325,74.6756121 76.1496461,74.6756121" id="Fill-4" fill="#000000"></path>
                <path d="M87.2975419,78.4610667 C83.7135864,78.4610667 79.7051575,77.3876121 75.165043,74.5468848 C74.0710395,73.8639758 73.7406504,72.4261576 74.4276846,71.3374303 C75.1125308,70.248703 76.5544274,69.9170667 77.6462429,70.6021576 C81.6087237,73.0785212 85.2298753,74.1039758 88.7241225,73.7330667 C92.006133,73.3861576 94.8461662,71.8414303 97.1917097,70.3752485 C98.2835252,69.6923394 99.7254218,70.0217939 100.410268,71.1105212 C101.095114,72.1992485 100.764725,73.6370667 99.6707217,74.3199758 C96.1480303,76.5236121 92.1067814,78.4610667 87.2975419,78.4610667" id="Fill-6" fill="#000000"></path>
                <path d="M98.4323097,74.6756121 C97.6818233,74.6756121 96.9444649,74.3156121 96.4937355,73.6479758 C95.7738811,72.5810667 96.056134,71.1345212 97.1260695,70.4145212 C108.311161,62.9025212 115.929802,48.8450667 116.08515,35.4356121 C116.207679,24.8297939 111.685068,15.7490667 103.350949,9.86688485 C102.298518,9.12288485 102.049085,7.66979394 102.793008,6.62033939 C103.539118,5.57088485 104.996331,5.32215758 106.048762,6.06397576 C115.673805,12.8581576 120.896578,23.3068848 120.756545,35.4901576 C120.671213,42.8254303 118.651683,50.3614303 114.916755,57.2865212 C111.155571,64.2596121 105.906542,70.1352485 99.7363619,74.2785212 C99.3337686,74.5490667 98.8808511,74.6756121 98.4323097,74.6756121" id="Fill-8" fill="#000000"></path>
                <path d="M87.2909779,193.896703 C86.0000538,193.896703 84.9563744,192.853794 84.9563744,191.568703 L84.9563744,89.6516121 C84.9563744,88.3643394 86.0022418,87.3236121 87.2909779,87.3236121 C88.581902,87.3236121 89.6255814,88.3665212 89.6255814,89.6516121 L89.6255814,191.568703 C89.6255814,192.853794 88.579714,193.896703 87.2909779,193.896703" id="Fill-10" fill="#000000"></path>
                <path d="M69.0189312,37.4821576 L68.959855,37.4821576 C67.6733069,37.4494303 66.6536956,36.3868848 66.6843277,35.1039758 C66.6887037,34.9076121 66.8199842,30.2101576 69.0823834,25.0894303 C72.1543453,18.1337939 77.654995,13.7090667 84.9870065,12.2952485 C86.2538626,12.0508848 87.4791465,12.8756121 87.7242033,14.1388848 C87.9692601,15.4021576 87.1421934,16.6239758 85.8753374,16.8683394 C80.0793067,17.9876121 75.8892733,21.3388848 73.4190134,26.832703 C71.4891912,31.1221576 71.3557227,35.1759758 71.3557227,35.2152485 C71.3185266,36.4785212 70.2792233,37.4821576 69.0189312,37.4821576" id="Fill-12" fill="#000000"></path>
                <path d="M168.437594,73.6196121 C167.654288,73.6196121 166.888485,73.2268848 166.448696,72.5134303 C162.376815,65.9352485 156.372924,61.6697939 148.601123,59.8414303 C142.678188,58.4472485 137.88864,59.0581576 137.842692,59.064703 C136.564896,59.232703 135.389936,58.3425212 135.217084,57.0683394 C135.044231,55.7963394 135.93475,54.624703 137.210358,54.4501576 C137.433535,54.4196121 142.76352,53.7170667 149.491642,55.2683394 C158.471222,57.336703 165.70915,62.4552485 170.422117,70.0697939 C171.100399,71.1650667 170.75907,72.5985212 169.66069,73.2748848 C169.279977,73.5083394 168.855504,73.6196121 168.437594,73.6196121" id="Fill-14" fill="#000000"></path>
                <path d="M115.2734,120.048703 C114.476965,120.048703 113.702411,119.642885 113.264809,118.911976 C109.457677,112.538885 107.223722,104.991976 106.803625,97.0872485 C106.387903,89.2348848 107.783852,81.5570667 110.844874,74.8872485 C115.927614,63.8101576 125.121619,56.5796121 136.733373,54.528703 C138.002417,54.3039758 139.214573,55.1505212 139.439937,56.4159758 C139.665302,57.6836121 138.818543,58.8901576 137.547311,59.1148848 C127.491231,60.8908848 119.515945,67.1788848 115.091795,76.824703 C109.497061,89.0210667 110.374452,104.976703 117.277614,116.527248 C117.938392,117.63343 117.575183,119.062521 116.465864,119.719248 C116.091714,119.941794 115.680369,120.048703 115.2734,120.048703" id="Fill-16" fill="#000000"></path>
                <path d="M131.425268,129.786158 C125.35136,129.786158 118.905491,127.791976 113.435474,119.285067 C112.739688,118.202885 113.054761,116.760703 114.140012,116.066885 C115.225264,115.370885 116.671536,115.687248 117.367322,116.76943 C119.890095,120.694521 122.730128,123.162158 126.047146,124.314158 C129.165056,125.396339 132.394555,125.206521 135.140504,124.879248 C136.420488,124.728703 137.584507,125.636339 137.737668,126.914885 C137.890828,128.191248 136.976241,129.351976 135.696257,129.504703 C134.309061,129.672703 132.878104,129.786158 131.425268,129.786158" id="Fill-18" fill="#000000"></path>
                <g id="Group-22" transform="translate(132.612967, 69.288703)">
                    <mask id="mask-4" fill="white">
                        <use xlink:href="#path-3"></use>
                    </mask>
                    <g id="Clip-21"></g>
                    <path d="M2.80541326,60.2356364 C1.67202562,60.2356364 0.676482419,59.4109091 0.49925385,58.2589091 C0.304521224,56.9869091 1.17972403,55.7978182 2.45314412,55.6036364 C15.7824829,53.568 28.6851604,44.0945455 34.5643352,32.0312727 C39.2116622,22.4923636 39.0059895,12.3556364 33.9845134,3.48872727 C33.3499913,2.36945455 33.7460206,0.949090909 34.8684682,0.316363636 C35.9909158,-0.316363636 37.4153084,0.0785454545 38.0498304,1.19781818 C43.8502371,11.4370909 44.1040459,23.1098182 38.7653087,34.0669091 C35.5511264,40.6647273 30.4990182,46.6232727 24.1581738,51.2967273 C17.7735693,56.0029091 10.513762,59.0836364 3.15987039,60.2072727 C3.04171801,60.2269091 2.92356563,60.2356364 2.80541326,60.2356364" id="Fill-20" fill="#000000" mask="url(#mask-4)"></path>
                </g>
                <path d="M89.5555652,193.896703 C89.190168,193.896703 88.8160188,193.80943 88.4703137,193.628339 C87.328174,193.028339 86.8905726,191.621067 87.4900865,190.482158 L117.454843,133.682885 C118.054357,132.543976 119.467809,132.107612 120.609949,132.70543 C121.752089,133.30543 122.18969,134.712703 121.590176,135.851612 L91.6232318,192.653067 C91.2053225,193.445067 90.3957599,193.896703 89.5555652,193.896703" id="Fill-23" fill="#000000"></path>
                <path d="M156.873977,101.156339 C156.462632,101.156339 156.046911,101.04943 155.670573,100.822521 C154.567818,100.159248 154.211173,98.7323394 154.874139,97.6305212 C155.200152,97.0828848 162.742212,84.0923394 150.929162,73.3228848 C149.977379,72.4545212 149.911739,70.9817939 150.780378,70.032703 C151.651205,69.0836121 153.128109,69.0159758 154.079892,69.8843394 C161.742293,76.8705212 162.643752,84.7141576 162.048614,90.0639758 C161.414092,95.7825212 158.97884,99.8603394 158.876004,100.030521 C158.438402,100.754885 157.666036,101.156339 156.873977,101.156339" id="Fill-25" fill="#000000"></path>
                <path d="M6.77013134,73.6196121 C6.352222,73.6196121 5.92774863,73.5083394 5.54484741,73.272703 C4.44646788,72.5963394 4.10732679,71.1628848 4.78342096,70.0676121 C9.49638809,62.4508848 16.7343153,57.3323394 25.7138962,55.2661576 C32.4420178,53.7170667 37.7720029,54.4174303 37.9951796,54.4479758 C39.2729757,54.6225212 40.1678706,55.7985212 39.990642,57.072703 C39.8156015,58.344703 38.6362657,59.2348848 37.3628456,59.0625212 C37.2884533,59.0537939 32.509846,58.4494303 26.604415,59.8414303 C18.8326141,61.6719758 12.8287228,65.9352485 8.75684172,72.5134303 C8.31924031,73.2268848 7.55343785,73.6196121 6.77013134,73.6196121" id="Fill-27" fill="#000000"></path>
                <path d="M59.9343261,120.048703 C59.5273567,120.048703 59.1160114,119.941794 58.7418622,119.719248 C57.6347307,119.060339 57.2715215,117.631248 57.9301116,116.527248 C64.8332738,104.976703 65.7106646,89.0210667 60.1159306,76.824703 C55.6917804,67.1788848 47.7164948,60.8908848 37.6604145,59.1148848 C36.3891824,58.8901576 35.5424237,57.6814303 35.7677885,56.4159758 C35.9931532,55.1483394 37.2053091,54.3039758 38.4743531,54.528703 C50.0861064,56.5796121 59.280112,63.8101576 64.3628523,74.8872485 C67.4238741,81.5570667 68.8198226,89.232703 68.4041013,97.0872485 C67.9840039,104.994158 65.7500487,112.541067 61.9429165,118.911976 C61.5053151,119.642885 60.7307606,120.048703 59.9343261,120.048703" id="Fill-29" fill="#000000"></path>
                <path d="M43.7824582,129.786158 C42.3296215,129.786158 40.9008529,129.672703 39.5092805,129.506885 C38.2292964,129.354158 37.3147094,128.19343 37.4678699,126.917067 C37.6210304,125.640703 38.7872382,124.730885 40.0650343,124.88143 C42.8131711,125.210885 46.0426694,125.400703 49.1583915,124.316339 C52.4754101,123.164339 55.3154432,120.696703 57.8382153,116.771612 C58.5340016,115.68943 59.9780862,115.373067 61.0655257,116.069067 C62.1507772,116.762885 62.4680382,118.202885 61.770064,119.287248 C56.3022344,127.794158 49.8541777,129.786158 43.7824582,129.786158" id="Fill-31" fill="#000000"></path>
                <g id="Group-35" transform="translate(0.000000, 69.288703)" fill="#000000">
                    <path d="M39.7893454,60.2356364 C39.671193,60.2356364 39.5530406,60.2269091 39.4327002,60.2094545 C32.0809966,59.0858182 24.8190013,56.0050909 18.4343968,51.2989091 C12.0935524,46.6232727 7.04144421,40.6669091 3.82726189,34.0690909 C-1.51147525,23.112 -1.25766644,11.4370909 4.54274019,1.2 C5.17726222,0.0807272727 6.6016548,-0.314181818 7.7241024,0.318545455 C8.84655001,0.951272727 9.24257928,2.37163636 8.60805724,3.49090909 C3.58658112,12.3578182 3.37872045,22.4945455 8.02823538,32.0334545 C13.9052223,44.0967273 26.8100877,53.5701818 40.1394265,55.6058182 C41.4150346,55.8 42.2902374,56.9890909 42.0933168,58.2610909 C41.9182762,59.4109091 40.922733,60.2356364 39.7893454,60.2356364" id="Fill-33"></path>
                </g>
                <path d="M85.0679628,193.174521 C84.219016,193.174521 83.3985134,192.709794 82.9871681,191.904703 L53.991699,135.295248 C53.4053131,134.149794 53.8604186,132.746885 55.0091222,132.162158 C56.1578259,131.57743 57.5647144,132.031248 58.1511003,133.176703 L87.1443814,189.786158 C87.7307673,190.931612 87.2756619,192.334521 86.1269582,192.919248 C85.7878171,193.093794 85.4246079,193.174521 85.0679628,193.174521" id="Fill-36" fill="#000000"></path>
                <path d="M18.0689996,100.637067 C17.2791291,100.637067 16.5089506,100.237794 16.0713492,99.5134303 C15.9685129,99.3432485 13.5332611,95.2654303 12.898739,89.5468848 C12.3057891,84.1970667 13.20506,76.3534303 20.8696486,69.3672485 C21.8214317,68.4988848 23.2983364,68.5665212 24.1691632,69.5156121 C25.03999,70.464703 24.9743498,71.9374303 24.0203787,72.8057939 C12.2051408,83.5752485 19.747201,96.5657939 20.0732141,97.1134303 C20.7318042,98.2174303 20.372971,99.6465212 19.2680275,100.30543 C18.8938783,100.530158 18.4781569,100.637067 18.0689996,100.637067" id="Fill-38" fill="#000000"></path>
                <path d="M95.3012716,88.9883394 L79.2806842,88.9883394 C78.4470535,88.9883394 77.674687,88.5432485 77.2589657,87.8232485 C76.8410563,87.1032485 76.8410563,86.2152485 77.2589657,85.4952485 L82.7727434,75.9716121 C83.4182055,74.8588848 84.844786,74.4748848 85.9628576,75.1185212 C87.0809292,75.7621576 87.4616424,77.1868848 86.8183684,78.2996121 L83.3284972,84.3301576 L91.2600226,84.3301576 L87.6716911,78.1316121 C87.0262291,77.016703 87.4091303,75.5941576 88.5272019,74.9505212 C89.6452735,74.3068848 91.071854,74.688703 91.7173161,75.8036121 L97.3295541,85.4952485 C97.7474635,86.2152485 97.7474635,87.1032485 97.3295541,87.8232485 C96.9072688,88.5432485 96.1370903,88.9883394 95.3012716,88.9883394" id="Fill-40" fill="#000000"></path>
                <path d="M125.880858,141.015976 C125.467324,141.015976 125.055979,140.906885 124.688394,140.688703 L110.912702,132.530885 C110.195035,132.10543 109.759622,131.330885 109.770562,130.499612 C109.781502,129.668339 110.23442,128.904703 110.963026,128.496703 L120.581505,123.116339 C121.70614,122.487976 123.130533,122.885067 123.760679,124.008703 C124.390825,125.130158 123.99042,126.550521 122.865784,127.178885 L116.776561,130.584703 L123.59439,134.623248 L123.684099,127.466885 C123.699415,126.190521 124.743094,125.167248 126.018702,125.167248 L126.047146,125.167248 C127.33807,125.182521 128.368622,126.238521 128.353306,127.525794 L128.215461,138.716339 C128.204521,139.547612 127.751604,140.311248 127.022997,140.719248 C126.66854,140.917794 126.274699,141.015976 125.880858,141.015976" id="Fill-42" fill="#000000"></path>
                <path d="M49.5587967,140.642885 C49.1649555,140.642885 48.7711142,140.544703 48.4166571,140.346158 C47.6880507,139.938158 47.2351333,139.176703 47.2241932,138.343248 L47.0863488,127.152703 C47.0710328,125.867612 48.1037721,124.811612 49.3925082,124.794158 L49.4209523,124.794158 C50.6965604,124.794158 51.7402397,125.81743 51.7555558,127.093794 L51.8452641,134.250158 L58.663094,130.211612 L52.5738704,126.805794 C51.4492348,126.17743 51.0488295,124.757067 51.6789755,123.635612 C52.3113096,122.514158 53.7335141,122.114885 54.8581498,122.743248 L64.4766286,128.123612 C65.205235,128.531612 65.6581524,129.295248 65.6690925,130.126521 C65.6800325,130.957794 65.2446191,131.732339 64.5269528,132.157794 L50.7534486,140.315612 C50.3858634,140.533794 49.9723301,140.642885 49.5587967,140.642885" id="Fill-44" fill="#000000"></path>
                <path d="M110.99147,195.834158 L63.5904858,195.834158 C62.2995617,195.834158 61.2558823,194.791248 61.2558823,193.506158 C61.2558823,192.218885 62.3017497,191.178158 63.5904858,191.178158 L110.99147,191.178158 C112.282394,191.178158 113.326074,192.221067 113.326074,193.506158 C113.326074,194.791248 112.280206,195.834158 110.99147,195.834158" id="Fill-46" fill="#000000"></path>
            </g>
        </g>
    </g>
</svg>