<?xml version="1.0" encoding="UTF-8" standalone="no"?>
<svg width="88px" height="72px" viewBox="0 0 88 72" version="1.1" xmlns="http://www.w3.org/2000/svg" xmlns:xlink="http://www.w3.org/1999/xlink">
    <!-- Generator: Sketch 39 (31667) - http://www.bohemiancoding.com/sketch -->
    <title>cloud</title>
    <desc>Created with Sketch.</desc>
    <defs></defs>
    <g id="Page-1" stroke="none" stroke-width="1" fill="none" fill-rule="evenodd">
        <g id="Prelaunch_Home" transform="translate(-632.000000, -493.000000)" fill="#010101">
            <g id="cloud" transform="translate(632.000000, 493.000000)">
                <g id="Layer_1">
                    <g id="Group">
                        <path d="M50.7278896,51.3928548 L71.6439774,51.3928548 C80.3483859,51.3928548 87.3948118,43.9279709 87.3948118,35.1870384 L87.3948118,35.0913347 C87.3948118,30.6251649 85.5136392,26.4461059 82.3252112,23.5111943 C81.27303,11.3887332 71.1019446,1.78646795 58.6670754,1.78646795 C55.8293745,1.78646795 53.0554421,2.32878858 50.4728154,3.22202255 C47.7945359,1.33985096 44.6061079,0.287110921 41.2263742,0.287110921 C35.6147409,0.287110921 30.5451403,3.22202255 27.6117866,7.75199486 C22.6378389,8.29431548 18.2696925,11.0378198 15.591413,15.1530764 C6.95077306,16.30152 0.191305681,23.8621076 0.191305681,32.9539534 C0.191305681,40.8654544 5.51598046,48.1708322 13.1044391,50.4039172 C14.6986531,50.9462378 16.2928671,51.3928548 17.9189654,51.3928548 L36.7944592,51.3928548 L36.7944592,51.3928548 L36.7944592,45.2359206 L36.7944592,45.2359206 L36.7944592,45.2359206 L17.9189654,45.2359206 C16.8667842,45.2359206 15.8783715,44.7893036 14.9856116,44.4383903 C10.1073168,43.0028357 6.53627742,38.3771597 6.53627742,33.0496571 C6.53627742,26.5418095 11.7971836,21.3100106 18.2696925,21.3100106 C18.8117253,21.3100106 19.3218737,21.3100106 19.7682537,21.4057142 C20.8204349,17.1309516 24.6465485,14.0046327 29.3016534,14.0046327 C30.0987604,14.0046327 30.8958674,14.1003363 31.6929744,14.2598424 C32.6813871,9.79367251 36.5712693,6.50784753 41.2901427,6.50784753 C44.6698764,6.50784753 47.6032302,8.19861184 49.3887499,10.7826101 C52.1626822,8.99614218 55.3511103,8.00720456 58.8264968,8.00720456 C68.5193179,8.00720456 76.3628508,15.8549031 76.3628508,25.5528719 L76.3628508,26.7013156 C79.3918575,28.2963763 81.4324514,31.5183988 81.4324514,35.1551372 L81.4324514,35.0913347 L81.4324514,35.282742 L81.4324514,35.4741493 C81.3367985,40.7378495 77.064305,45.3635255 71.8352831,45.3635255 L50.7597739,45.3635255 L50.7597739,45.3635255 L50.7597739,45.3635255 L50.7597739,51.3928548 L50.7278896,51.3928548 L50.7278896,51.3928548 Z" id="Shape"></path>
                        <path d="M55.0003832,34.6447178 C54.3626976,35.282742 53.5655906,35.6336554 52.6728307,35.6336554 C51.8757237,35.6336554 50.9829639,35.282742 50.3452783,34.6447178 L46.7104704,31.0079794 L46.7104704,42.5881199 L46.7104704,50.2444111 L46.7104704,67.8857821 L46.7104704,67.8857821 L46.7104704,67.8857821 C46.7104704,69.6722501 45.2756777,71.0759035 43.5220423,71.0759035 C41.7365227,71.0759035 40.2379615,69.6403489 40.2379615,67.8857821 L40.2379615,67.8857821 L40.2379615,67.8857821 L40.2379615,50.2444111 L40.2379615,42.6838235 L40.2379615,31.0079794 L36.6669221,34.6447178 C36.0292365,35.282742 35.2321295,35.6336554 34.3393697,35.6336554 C33.5422627,35.6336554 32.6495028,35.282742 32.0118172,34.6447178 C30.7683303,33.4005704 30.7683303,31.3588928 32.0118172,30.1147454 L41.1626056,20.9590972 C41.8002912,20.3210729 42.5973982,19.9701596 43.4901581,19.9701596 C44.2872651,19.9701596 45.1800249,20.3210729 45.8177105,20.9590972 L54.9684989,30.1147454 C56.2438701,31.3588928 56.2438701,33.4005704 55.0003832,34.6447178 L55.0003832,34.6447178 Z" id="Shape"></path>
                    </g>
                </g>
            </g>
        </g>
    </g>
</svg>