<?xml version="1.0" encoding="UTF-8" standalone="no"?>
<svg width="75px" height="76px" viewBox="0 0 75 76" version="1.1" xmlns="http://www.w3.org/2000/svg" xmlns:xlink="http://www.w3.org/1999/xlink">
    <!-- Generator: Sketch 39 (31667) - http://www.bohemiancoding.com/sketch -->
    <title>Page 1</title>
    <desc>Created with Sketch.</desc>
    <defs></defs>
    <g id="Page-1" stroke="none" stroke-width="1" fill="none" fill-rule="evenodd">
        <g id="Prelaunch_Home" transform="translate(-706.000000, -4701.000000)" fill="#000000">
            <path d="M730.210061,4783.98056 L750.377061,4783.98056 L750.377061,4777.68156 L730.210061,4777.68156 L730.210061,4783.98056 Z M730.210061,4724.97956 L750.377061,4724.97956 L750.377061,4718.89856 L730.210061,4718.89856 L730.210061,4724.97956 Z M730.210061,4731.61956 L750.377061,4731.61956 L750.377061,4728.29256 L730.210061,4728.29256 L730.210061,4731.61956 Z M730.210061,4774.36656 L750.377061,4774.36656 L750.377061,4771.03856 L730.210061,4771.03856 L730.210061,4774.36656 Z M730.210061,4767.72656 L730.210061,4734.93256 L750.377061,4734.93256 L750.377061,4767.72556 L730.210061,4767.72556 L730.210061,4767.72656 Z M738.834061,4700.60556 L741.754061,4700.60556 L749.243061,4715.58456 L731.344061,4715.58456 L738.834061,4700.60556 Z M753.516061,4716.72056 L744.260061,4698.20856 C743.979061,4697.64756 743.404061,4697.29256 742.777061,4697.29256 L737.809061,4697.29256 C737.182061,4697.29256 736.608061,4697.64756 736.327061,4698.20856 L727.071061,4716.72056 C726.956061,4716.95056 726.896061,4717.20456 726.896061,4717.46156 L726.896061,4785.63656 C726.896061,4786.55156 727.638061,4787.29256 728.553061,4787.29256 L752.033061,4787.29256 C752.947061,4787.29256 753.689061,4786.55156 753.689061,4785.63656 L753.689061,4717.46156 C753.689061,4717.20456 753.630061,4716.95056 753.516061,4716.72056 L753.516061,4716.72056 Z" id="Page-1" transform="translate(740.292561, 4742.292561) rotate(-135.000000) translate(-740.292561, -4742.292561) "></path>
        </g>
    </g>
</svg>