<?xml version="1.0" encoding="UTF-8" standalone="no"?>
<svg width="123px" height="64px" viewBox="0 0 123 64" version="1.1" xmlns="http://www.w3.org/2000/svg" xmlns:xlink="http://www.w3.org/1999/xlink">
    <!-- Generator: Sketch 39 (31667) - http://www.bohemiancoding.com/sketch -->
    <title>noun_535039</title>
    <desc>Created with Sketch.</desc>
    <defs></defs>
    <g id="Page-1" stroke="none" stroke-width="1" fill="none" fill-rule="evenodd">
        <g id="Prelaunch_Home" transform="translate(-957.000000, -386.000000)" fill="#000000">
            <g id="Group-2" transform="translate(827.000000, 386.000000)">
                <g id="noun_535039" transform="translate(130.000000, 0.500000)">
                    <g id="Layer_1" transform="translate(0.000000, 0.000000)">
                        <g id="Group">
                            <path d="M61.5327065,63.3601607 C28.667839,63.3601607 2.63203484,35.5780768 1.49385761,34.4441142 C0.0711360769,32.8849156 0.0711360769,30.4752451 1.49385761,28.9160465 C2.56089877,27.7112112 28.5967029,0 61.5327065,0 C94.4687101,0 120.504514,27.7820839 121.571555,28.9160465 C122.994277,30.4752451 122.994277,32.8849156 121.571555,34.4441142 C120.433378,35.5780768 94.397574,63.3601607 61.5327065,63.3601607 L61.5327065,63.3601607 Z M10.3147311,31.6092077 C17.570611,38.3421107 37.986665,55.2098045 61.5327065,55.2098045 C85.0787479,55.2098045 105.494802,38.4129833 112.750682,31.6800804 C105.494802,24.9471774 85.0787479,8.15035624 61.5327065,8.15035624 C37.915529,8.07948358 17.570611,24.8763047 10.3147311,31.6092077 L10.3147311,31.6092077 Z" id="Shape"></path>
                            <path d="M61.5327065,50.2487181 C51.2179753,50.2487181 42.8239183,41.8857438 42.8239183,31.6092077 C42.8239183,21.3326716 51.2179753,12.9696973 61.5327065,12.9696973 C63.8090609,12.9696973 65.5874629,14.8123866 65.5874629,17.0094391 C65.5874629,19.2064917 63.7379249,21.0491809 61.5327065,21.0491809 C55.7706843,21.0491809 51.0045671,25.7267767 51.0045671,31.538335 C51.0045671,37.3498934 55.6995482,42.0274891 61.5327065,42.0274891 C67.3658648,42.0274891 72.0608459,37.3498934 72.0608459,31.538335 C72.0608459,29.2704098 73.9103838,27.4985932 76.1156022,27.4985932 C78.3919567,27.4985932 80.1703586,29.3412825 80.1703586,31.538335 C80.1703586,41.8857438 71.7763015,50.2487181 61.5327065,50.2487181 L61.5327065,50.2487181 Z" id="Shape"></path>
                            <ellipse id="Oval" cx="61.5327065" cy="31.113099" rx="6.04656653" ry="6.02417635"></ellipse>
                        </g>
                    </g>
                </g>
            </g>
        </g>
    </g>
</svg>