<?xml version="1.0" encoding="UTF-8" standalone="no"?>
<svg width="114px" height="46px" viewBox="0 0 114 46" version="1.1" xmlns="http://www.w3.org/2000/svg" xmlns:xlink="http://www.w3.org/1999/xlink">
    <!-- Generator: Sketch 39 (31667) - http://www.bohemiancoding.com/sketch -->
    <title>noun_57655_cc</title>
    <desc>Created with Sketch.</desc>
    <defs></defs>
    <g id="Page-1" stroke="none" stroke-width="1" fill="none" fill-rule="evenodd">
        <g id="Prelaunch_Home" transform="translate(-827.000000, -411.000000)" fill="#000000">
            <g id="Group-2" transform="translate(827.000000, 386.000000)">
                <g id="noun_57655_cc" transform="translate(0.000000, 24.500000)">
                    <g id="Layer_1">
                        <path d="M111.819255,9.76550079 L105.421739,6.13473768 C105.547181,5.88434022 105.672622,5.63394277 105.798064,5.38354531 C106.676154,3.88116057 106.048947,2.00317965 104.543649,1.12678855 C103.038352,0.375596184 101.156729,0.876391097 100.278639,2.37877583 C91.7486191,18.404213 75.0649035,28.4201113 56.8758902,28.4201113 C38.6868769,28.4201113 22.0031612,18.404213 13.4731412,2.37877583 C12.7204924,0.876391097 10.7134288,0.250397456 9.20813117,1.12678855 C7.70283352,2.00317965 7.07562617,3.88116057 7.95371646,5.38354531 C8.07915793,5.63394277 8.2045994,5.88434022 8.33004088,6.13473768 L1.93252585,9.76550079 C0.427228199,10.6418919 -0.0745376857,12.5198728 0.803552612,14.0222576 C1.43075997,15.0238474 2.43429174,15.5246423 3.56326498,15.5246423 C4.06503086,15.5246423 4.69223821,15.3994436 5.06856263,15.1490461 L11.5915191,11.3930843 C13.0968168,13.5214626 14.7275559,15.5246423 16.609178,17.4026232 L11.0897532,22.9113672 C9.83533853,24.1633545 9.83533853,26.1665342 11.0897532,27.2933227 C11.7169606,27.9193164 12.4696094,28.1697138 13.3476997,28.1697138 C14.22579,28.1697138 14.9784388,27.9193164 15.6056462,27.2933227 L21.3759539,21.5341812 C23.3830174,23.1617647 25.3900809,24.6641494 27.6480274,26.0413355 L23.5084589,33.177663 C22.6303686,34.6800477 23.1321345,36.5580286 24.6374321,37.4344197 C25.139198,37.6848172 25.6409639,37.8100159 26.1427298,37.8100159 C27.271703,37.8100159 28.2752348,37.309221 28.9024421,36.3076312 L33.1674521,29.0461049 C35.4253986,30.1728935 37.8087866,31.0492846 40.317616,31.8004769 L38.0596695,40.063593 C37.5579036,41.6911765 38.5614354,43.4439587 40.317616,43.9447536 C40.5684989,44.0699523 40.8193819,44.0699523 41.0702648,44.0699523 C42.450121,44.0699523 43.7045357,43.1935612 44.0808601,41.6911765 L46.3388066,33.4280604 C48.847636,33.9288553 51.3564655,34.1792528 53.8652949,34.4296502 L53.8652949,43.0683625 C53.8652949,44.8211447 55.2451511,46.1983307 57.0013317,46.1983307 C58.7575122,46.1983307 60.1373684,44.8211447 60.1373684,43.0683625 L60.1373684,34.4296502 C62.6461978,34.3044515 65.1550273,33.9288553 67.6638567,33.4280604 L69.9218032,41.6911765 C70.2981276,43.0683625 71.5525423,44.0699523 72.9323985,44.0699523 C73.1832814,44.0699523 73.4341644,44.0699523 73.6850473,43.9447536 C75.3157864,43.4439587 76.3193182,41.8163752 75.9429938,40.063593 L73.6850473,31.8004769 C76.0684353,31.0492846 78.4518232,30.0476948 80.8352112,29.0461049 L85.1002212,36.3076312 C85.7274285,37.309221 86.7309603,37.8100159 87.8599335,37.8100159 C88.3616994,37.8100159 88.9889068,37.6848172 89.3652312,37.4344197 C90.8705288,36.5580286 91.3722947,34.6800477 90.4942044,33.177663 L86.2291944,26.2917329 C88.3616994,24.9145469 90.4942044,23.4121622 92.501268,21.7845787 L98.2715756,27.5437202 C98.898783,28.1697138 99.6514318,28.4201113 100.529522,28.4201113 C101.407612,28.4201113 102.160261,28.1697138 102.787469,27.5437202 C104.041883,26.2917329 104.041883,24.2885533 102.787469,23.1617647 L97.0171609,17.4026232 C98.7733415,15.5246423 100.529522,13.5214626 102.03482,11.3930843 L108.557776,15.1490461 C109.059542,15.3994436 109.561308,15.5246423 110.063074,15.5246423 C111.192047,15.5246423 112.195579,15.0238474 112.822786,14.0222576 C113.826318,12.5198728 113.199111,10.6418919 111.819255,9.76550079 L111.819255,9.76550079 Z" id="Shape"></path>
                    </g>
                </g>
            </g>
        </g>
    </g>
</svg>