<?xml version="1.0" encoding="UTF-8" standalone="no"?>
<svg width="74px" height="97px" viewBox="0 0 74 97" version="1.1" xmlns="http://www.w3.org/2000/svg" xmlns:xlink="http://www.w3.org/1999/xlink">
    <!-- Generator: Sketch 39 (31667) - http://www.bohemiancoding.com/sketch -->
    <title>noun_124326_cc</title>
    <desc>Created with Sketch.</desc>
    <defs></defs>
    <g id="Page-1" stroke="none" stroke-width="1" fill="none" fill-rule="evenodd">
        <g id="Prelaunch_Home" transform="translate(-790.000000, -190.000000)" fill="#000000">
            <g id="noun_124326_cc" transform="translate(790.000000, 190.000000)">
                <g id="Layer_1">
                    <path d="M71.3721494,5.21966912 L55.9209297,5.21966912 C54.7972046,5.21966912 53.8139452,6.20404412 53.8139452,7.32904412 L53.8139452,10.2821691 L51.8474263,10.2821691 C51.4260294,9.57904412 51.1450981,8.87591912 51.0046325,8.03216912 C50.8641668,7.04779412 50.021373,6.20404412 48.897648,6.20404412 L44.6836789,6.20404412 L44.6836789,2.54779412 C44.6836789,1.42279412 43.7004195,0.438419118 42.5766944,0.438419118 L29.0919936,0.438419118 C27.9682685,0.438419118 26.985009,1.42279412 26.985009,2.54779412 L26.985009,6.20404412 L22.77104,6.20404412 C21.7877806,6.20404412 20.8045211,6.90716912 20.6640555,8.03216912 C20.5235899,8.87591912 20.2426586,9.57904412 19.8212617,10.2821691 L15.8882239,10.2821691 C14.2026363,8.73529412 11.9551862,7.89154412 9.70773605,7.89154412 C4.65097322,7.89154412 0.437004195,12.1102941 0.437004195,17.1727941 C0.437004195,22.2352941 4.65097322,26.4540441 9.70773605,26.4540441 C11.9551862,26.4540441 14.2026363,25.6102941 15.8882239,24.0634191 L19.5403304,24.0634191 C20.102193,24.7665441 20.5235899,25.4696691 20.6640555,26.3134191 C20.8045211,27.2977941 21.6473149,28.1415441 22.77104,28.1415441 L26.985009,28.1415441 L26.985009,94.2352941 C26.985009,95.3602941 27.9682685,96.3446691 29.0919936,96.3446691 L42.7171601,96.3446691 C43.8408851,96.3446691 44.8241446,95.3602941 44.8241446,94.2352941 L44.8241446,28.1415441 L49.0381136,28.1415441 C50.021373,28.1415441 51.0046325,27.4384191 51.1450981,26.3134191 C51.2855638,25.4696691 51.7069607,24.6259191 52.2688232,24.0634191 L53.9544108,24.0634191 L53.9544108,27.0165441 C53.9544108,28.1415441 54.9376702,29.1259191 56.0613953,29.1259191 L71.5126151,29.1259191 C72.6363401,29.1259191 73.6195996,28.1415441 73.6195996,27.0165441 L73.6195996,7.32904412 C73.4791339,6.06341912 72.4958745,5.21966912 71.3721494,5.21966912 L71.3721494,5.21966912 Z M31.3394437,4.65716912 L40.6101756,4.65716912 L40.6101756,6.20404412 L31.3394437,6.20404412 L31.3394437,4.65716912 L31.3394437,4.65716912 Z M40.6101756,92.1259191 L31.3394437,92.1259191 L31.3394437,28.1415441 L40.6101756,28.1415441 L40.6101756,92.1259191 L40.6101756,92.1259191 Z M51.2855638,19.8446691 C50.7237012,19.8446691 50.3023043,19.9852941 49.8809074,20.4071691 C48.7571823,21.3915441 47.7739229,22.6571691 47.352526,23.9227941 L24.5970933,23.9227941 C24.0352307,22.5165441 23.1924369,21.3915441 22.0687119,20.4071691 C21.6473149,20.1259191 21.225918,19.8446691 20.6640555,19.8446691 L15.3263614,19.8446691 C14.7644989,19.8446691 14.2026363,20.1259191 13.7812394,20.5477941 C12.79798,21.6727941 11.3933237,22.2352941 9.98866732,22.2352941 C7.17935463,22.2352941 4.93190449,19.9852941 4.93190449,17.1727941 C4.93190449,14.3602941 7.17935463,12.1102941 9.98866732,12.1102941 C11.3933237,12.1102941 12.79798,12.6727941 13.7812394,13.7977941 C14.2026363,14.2196691 14.7644989,14.5009191 15.3263614,14.5009191 L21.0854524,14.5009191 C21.6473149,14.5009191 22.2091775,14.2196691 22.6305744,13.7977941 C23.4733682,12.8134191 24.1756964,11.6884191 24.5970933,10.4227941 L47.2120604,10.4227941 C47.6334573,11.6884191 48.3357854,12.8134191 49.1785792,13.7977941 C49.5999761,14.2196691 50.1618387,14.5009191 50.7237012,14.5009191 L53.6734795,14.5009191 L53.6734795,19.8446691 L51.2855638,19.8446691 L51.2855638,19.8446691 L51.2855638,19.8446691 Z M69.2651649,24.9071691 L58.0279142,24.9071691 L58.0279142,9.43841912 L69.2651649,9.43841912 L69.2651649,24.9071691 L69.2651649,24.9071691 Z" id="Shape"></path>
                </g>
            </g>
        </g>
    </g>
</svg>