<?xml version="1.0" encoding="UTF-8" standalone="no"?>
<svg width="78px" height="99px" viewBox="0 0 78 99" version="1.1" xmlns="http://www.w3.org/2000/svg" xmlns:xlink="http://www.w3.org/1999/xlink">
    <!-- Generator: Sketch 39 (31667) - http://www.bohemiancoding.com/sketch -->
    <title>noun_288046_cc</title>
    <desc>Created with Sketch.</desc>
    <defs></defs>
    <g id="Page-1" stroke="none" stroke-width="1" fill="none" fill-rule="evenodd">
        <g id="Prelaunch_Home" transform="translate(-297.000000, -287.000000)" fill="#000000">
            <g id="noun_288046_cc" transform="translate(297.000000, 287.000000)">
                <g id="Layer_1">
                    <g id="Group">
                        <path d="M40.9269882,28.7814331 L40.9269882,11.9586182 C43.3017877,11.1126709 45.0062809,8.82476807 45.0062809,6.15234375 C45.0062809,2.74932861 42.2676008,0 38.8777661,0 C35.4879313,0 32.7492512,2.74932861 32.7492512,6.15234375 C32.7492512,8.82476807 34.4537444,11.1126709 36.8285439,11.9586182 L36.8285439,28.7814331 C20.8561021,29.8388672 8.23519183,43.1817627 8.23519183,59.4662476 L8.23519183,98.4375 L69.5203403,98.4375 L69.5203403,59.4662476 C69.5203403,43.1817627 56.8802784,29.8388672 40.9269882,28.7814331 L40.9269882,28.7814331 Z M38.8777661,4.09515381 C40.007711,4.09515381 40.9269882,5.01800537 40.9269882,6.15234375 C40.9269882,7.28668213 40.007711,8.20953369 38.8777661,8.20953369 C37.7478211,8.20953369 36.8285439,7.28668213 36.8285439,6.15234375 C36.8285439,5.01800537 37.7478211,4.09515381 38.8777661,4.09515381 L38.8777661,4.09515381 Z M65.4410476,59.4662476 L65.4410476,94.3231201 L12.3144845,94.3231201 L12.3144845,59.4662476 C12.3144845,55.8709717 13.0230941,52.3718262 14.4020099,49.0841675 C15.7426225,45.9118652 17.6577834,43.0664062 20.1091893,40.6054688 C22.5414437,38.1637573 25.3950334,36.2411499 28.5550489,34.8953247 C31.829974,33.5110474 35.2964152,32.7996826 38.8969177,32.7996826 C42.4974202,32.7996826 45.9638614,33.5110474 49.2387865,34.8953247 C52.398802,36.2411499 55.2332401,38.1637573 57.684646,40.6054688 C60.1360519,43.0471802 62.0512128,45.9118652 63.3726739,49.0841675 C64.7324381,52.3910522 65.4410476,55.8709717 65.4410476,59.4662476 L65.4410476,59.4662476 Z" id="Shape"></path>
                        <path d="M26.6207364,49.21875 C20.9901634,49.21875 16.4129288,53.8137817 16.4129288,59.4662476 C16.4129288,65.1379395 20.9901634,69.7137451 26.6207364,69.7137451 L51.1347958,69.7137451 C56.7845204,69.7137451 61.3426033,65.1187134 61.3426033,59.4662476 C61.3426033,53.7945557 56.7653688,49.21875 51.1347958,49.21875 L26.6207364,49.21875 L26.6207364,49.21875 Z M57.2633106,59.4662476 C57.2633106,62.8692627 54.5246305,65.6185913 51.1347958,65.6185913 L26.6207364,65.6185913 C23.2500532,65.6185913 20.4922215,62.8692627 20.4922215,59.4662476 C20.4922215,56.0824585 23.2500532,53.3139038 26.6207364,53.3139038 L51.1347958,53.3139038 C54.5054789,53.3139038 57.2633106,56.0824585 57.2633106,59.4662476 L57.2633106,59.4662476 Z" id="Shape"></path>
                        <path d="M26.6207364,57.4282837 C25.4907914,57.4282837 24.5715142,58.3511353 24.5715142,59.4854736 C24.5715142,60.619812 25.4907914,61.5426636 26.6207364,61.5426636 L51.1347958,61.5426636 C52.2647407,61.5426636 53.1840179,60.619812 53.1840179,59.4854736 C53.1840179,58.3511353 52.2647407,57.4282837 51.1347958,57.4282837 L26.6207364,57.4282837 L26.6207364,57.4282837 Z" id="Shape"></path>
                        <path d="M4.15589913,53.3139038 C3.02595421,53.3139038 2.10667698,54.2367554 2.10667698,55.3710938 L2.10667698,61.5234375 C0.976732054,61.5234375 0.0574548267,62.4462891 0.0574548267,63.5806274 C0.0574548267,64.7149658 0.976732054,65.6378174 2.10667698,65.6378174 L2.10667698,71.7901611 C2.10667698,72.9244995 3.02595421,73.8473511 4.15589913,73.8473511 C5.28584406,73.8473511 6.20512128,72.9244995 6.20512128,71.7901611 L6.20512128,55.3710938 C6.18596968,54.2367554 5.26669245,53.3139038 4.15589913,53.3139038 L4.15589913,53.3139038 Z" id="Shape"></path>
                        <path d="M75.6488552,61.5234375 L75.6488552,55.3710938 C75.6488552,54.2367554 74.7295779,53.3139038 73.599633,53.3139038 C72.4696881,53.3139038 71.5504109,54.2367554 71.5504109,55.3710938 L71.5504109,71.7709351 C71.5504109,72.9052734 72.4696881,73.828125 73.599633,73.828125 C74.7295779,73.828125 75.6488552,72.9052734 75.6488552,71.7709351 L75.6488552,65.6185913 C76.7788001,65.6185913 77.6980773,64.6957397 77.6980773,63.5614014 C77.6980773,62.4462891 76.7788001,61.5234375 75.6488552,61.5234375 L75.6488552,61.5234375 Z" id="Shape"></path>
                        <path d="M51.1347958,79.9804688 C50.0048508,79.9804688 49.0855736,80.9033203 49.0855736,82.0376587 L28.6699585,82.0376587 C28.6699585,80.9033203 27.7506813,79.9804688 26.6207364,79.9804688 C25.4907914,79.9804688 24.5715142,80.9033203 24.5715142,82.0376587 L24.5715142,84.0948486 C24.5715142,85.229187 25.4907914,86.1520386 26.6207364,86.1520386 L51.1347958,86.1520386 C52.2647407,86.1520386 53.1840179,85.229187 53.1840179,84.0948486 L53.1840179,82.0376587 C53.1840179,80.9033203 52.2647407,79.9804688 51.1347958,79.9804688 L51.1347958,79.9804688 Z" id="Shape"></path>
                    </g>
                </g>
            </g>
        </g>
    </g>
</svg>