<?xml version="1.0" encoding="UTF-8" standalone="no"?>
<svg width="91px" height="84px" viewBox="0 0 91 84" version="1.1" xmlns="http://www.w3.org/2000/svg" xmlns:xlink="http://www.w3.org/1999/xlink">
    <!-- Generator: Sketch 39 (31667) - http://www.bohemiancoding.com/sketch -->
    <title>Page 1</title>
    <desc>Created with Sketch.</desc>
    <defs></defs>
    <g id="Page-1" stroke="none" stroke-width="1" fill="none" fill-rule="evenodd" stroke-linecap="round" stroke-linejoin="round">
        <g id="Prelaunch_Home" transform="translate(-916.000000, -2107.000000)" stroke="#000000">
            <g id="Page-1" transform="translate(916.000000, 2107.000000)">
                <polygon id="Stroke-1" points="56.9225 49.0062 41.9945 34.0832 71.8365 4.2322 86.7645 19.1562"></polygon>
                <polygon id="Stroke-2" points="79.307 26.62 86.768 19.157 79.307 11.693"></polygon>
                <polygon id="Stroke-3" points="49.457 26.617 41.996 34.08 49.461 41.542"></polygon>
                <polygon id="Stroke-4" points="71.845 34.082 86.768 19.157 71.845 4.231"></polygon>
                <polygon id="Stroke-5" points="64.383 41.544 86.768 19.157 71.845 4.231 64.383 11.693"></polygon>
                <polygon id="Stroke-6" points="56.923 49.004 86.768 19.157 71.845 4.231 56.921 19.157"></polygon>
                <g id="Group-25" transform="translate(0.000000, 0.083000)">
                    <polygon id="Stroke-7" points="69.978 2.285 88.634 20.939 90.499 0.417"></polygon>
                    <polygon id="Stroke-9" points="86.768 19.074 23.34 82.5"></polygon>
                    <path d="M8.415,52.653 L15.878,45.191 C17.938,43.131 21.278,43.131 23.338,45.191 L30.803,52.653 C32.863,54.714 36.203,54.714 38.263,52.653 L49.457,41.461 L38.263,52.653 C36.203,54.714 32.863,54.714 30.803,52.653 L23.338,45.191 C21.278,43.131 17.938,43.131 15.878,45.191 L8.415,52.653 L8.415,52.653 Z" id="Stroke-11"></path>
                    <polygon id="Stroke-13" points="11.213 55.45 14.01 58.248"></polygon>
                    <polygon id="Stroke-15" points="2.818 47.059 5.617 49.857"></polygon>
                    <polygon id="Stroke-17" points="12.371 52.655 16.329 52.653"></polygon>
                    <polygon id="Stroke-19" points="0.5 52.655 4.458 52.653"></polygon>
                    <polygon id="Stroke-21" points="8.415 48.698 8.413 44.74"></polygon>
                    <polygon id="Stroke-23" points="8.415 60.566 8.413 56.608"></polygon>
                </g>
            </g>
        </g>
    </g>
</svg>