<?xml version="1.0" encoding="UTF-8" standalone="no"?>
<svg width="109px" height="109px" viewBox="0 0 109 109" version="1.1" xmlns="http://www.w3.org/2000/svg" xmlns:xlink="http://www.w3.org/1999/xlink">
    <!-- Generator: Sketch 39 (31667) - http://www.bohemiancoding.com/sketch -->
    <title>noun_565190_cc</title>
    <desc>Created with Sketch.</desc>
    <defs></defs>
    <g id="Page-1" stroke="none" stroke-width="1" fill="none" fill-rule="evenodd">
        <g id="Prelaunch_Home" transform="translate(-351.000000, -699.000000)" fill="#000000">
            <g id="noun_565190_cc" transform="translate(351.000000, 699.000000)">
                <g id="Layer_1">
                    <g id="Group">
                        <path d="M104.692503,86.7976244 L66.7233391,48.902169 L69.4963679,46.1345234 L66.95798,43.6010632 L59.1295064,51.4143397 L21.4589767,13.8382281 L18.8352648,5.96108286 L6.88991002,0 L0,6.87653487 L5.97267741,18.7987006 L13.865144,21.4173191 L51.5356737,59.0147203 L43.7072001,66.8279968 L46.245588,69.361457 L49.0186168,66.5938114 L86.9877803,104.489267 C89.8674641,107.831731 98.4425224,110.748404 104.692503,104.489267 C109.5773,99.6139525 109.5773,91.6729386 104.692503,86.7976244 L104.692503,86.7976244 Z M4.37285311,7.57909107 L7.6151637,4.34307466 L15.9129191,8.49454308 L17.8540393,14.3278884 L14.3557568,17.7980903 L8.51106532,15.8607383 L4.37285311,7.57909107 L4.37285311,7.57909107 Z M17.3634265,19.8418901 L19.9018144,17.3084299 L56.6124495,53.9477999 L54.0740616,56.4812601 L17.3634265,19.8418901 L17.3634265,19.8418901 Z M102.154115,101.955807 C97.6532757,106.447908 91.8299152,104.31895 89.5048373,101.955807 L51.5356737,64.0603512 L64.1849512,51.4356293 L102.154115,89.3310846 C105.652397,92.8012864 105.652397,98.4643151 102.154115,101.955807 L102.154115,101.955807 Z" id="Shape"></path>
                        <rect id="Rectangle-path" transform="translate(69.645855, 69.513699) rotate(-45.000000) translate(-69.645855, -69.513699) " x="67.8540695" y="67.7253911" width="3.58357208" height="3.57661542"></rect>
                        <rect id="Rectangle-path" transform="translate(74.716776, 74.551791) rotate(-45.000000) translate(-74.716776, -74.551791) " x="72.9249899" y="72.7634833" width="3.58357208" height="3.57661542"></rect>
                        <rect id="Rectangle-path" transform="translate(79.755845, 79.606089) rotate(-45.000000) translate(-79.755845, -79.606089) " x="77.9640589" y="77.8177811" width="3.58357208" height="3.57661542"></rect>
                        <path d="M95.2215428,89.6717179 C92.2565351,89.6717179 89.8461331,92.0774406 89.8461331,95.0366925 C89.8461331,97.9959443 92.2565351,100.401667 95.2215428,100.401667 C98.1865505,100.401667 100.596952,97.9959443 100.596952,95.0366925 C100.596952,92.0774406 98.1865505,89.6717179 95.2215428,89.6717179 L95.2215428,89.6717179 Z M95.2215428,96.8037278 C94.2403172,96.8037278 93.4297396,95.9947237 93.4297396,95.0154029 C93.4297396,94.0360821 94.2403172,93.227078 95.2215428,93.227078 C96.2027684,93.227078 97.013346,94.0360821 97.013346,95.0154029 C97.013346,95.9947237 96.2027684,96.8037278 95.2215428,96.8037278 L95.2215428,96.8037278 Z" id="Shape"></path>
                    </g>
                </g>
            </g>
        </g>
    </g>
</svg>